<?xml version="1.0" encoding="utf-8"?>
<!-- Generator: Adobe Illustrator 16.0.0, SVG Export Plug-In . SVG Version: 6.00 Build 0)  -->
<!DOCTYPE svg PUBLIC "-//W3C//DTD SVG 1.1//EN" "http://www.w3.org/Graphics/SVG/1.1/DTD/svg11.dtd">
<svg version="1.1" id="Pictograms" xmlns="http://www.w3.org/2000/svg" xmlns:xlink="http://www.w3.org/1999/xlink" x="0px" y="0px"
	 width="12px" height="10px" viewBox="0 0 12 10" enable-background="new 0 0 12 10" xml:space="preserve">
<g>
	<path d="M8,2H5.413l0.293-0.293c0.391-0.39,0.391-1.023,0-1.414s-1.023-0.391-1.414,0L1.585,3l2.707,2.707
		C4.487,5.902,4.743,6,4.999,6s0.512-0.098,0.707-0.293c0.391-0.391,0.391-1.023,0-1.414L5.413,4H8c1.103,0,2,0.896,2,2S9.103,8,8,8
		H1C0.447,8,0,8.447,0,9s0.447,1,1,1h7c2.206,0,4-1.795,4-4S10.206,2,8,2z"/>
</g>
</svg>
