<?xml version="1.0" encoding="utf-8"?>
<!-- Generator: Adobe Illustrator 16.0.0, SVG Export Plug-In . SVG Version: 6.00 Build 0)  -->
<!DOCTYPE svg PUBLIC "-//W3C//DTD SVG 1.1//EN" "http://www.w3.org/Graphics/SVG/1.1/DTD/svg11.dtd">
<svg version="1.1" id="Pictograms" xmlns="http://www.w3.org/2000/svg" xmlns:xlink="http://www.w3.org/1999/xlink" x="0px" y="0px"
	 width="18px" height="16px" viewBox="0 0 18 16" enable-background="new 0 0 18 16" xml:space="preserve">
<path fill-rule="evenodd" clip-rule="evenodd" d="M16,0H2C0.896,0,0,0.896,0,2v7v1v4c0,1.104,0.896,2,2,2h4h1h4h1h4
	c1.104,0,2-0.896,2-2V2C18,0.896,17.104,0,16,0z M16,6v3h-4V5h3C15.552,5,16,5.447,16,6z M11,9H7V5h4V9z M2,6c0-0.553,0.448-1,1-1h3
	v4H2V6z M3,14c-0.552,0-1-0.447-1-1v-3h4v4H3z M7,14v-4h4v4H7z M15,14h-3v-4h4v3C16,13.553,15.552,14,15,14z"/>
</svg>
