<?xml version="1.0" encoding="utf-8"?>
<!-- Generator: Adobe Illustrator 16.0.0, SVG Export Plug-In . SVG Version: 6.00 Build 0)  -->
<!DOCTYPE svg PUBLIC "-//W3C//DTD SVG 1.1//EN" "http://www.w3.org/Graphics/SVG/1.1/DTD/svg11.dtd">
<svg version="1.1" id="Pictograms" xmlns="http://www.w3.org/2000/svg" xmlns:xlink="http://www.w3.org/1999/xlink" x="0px" y="0px"
	 width="16px" height="20px" viewBox="0 0 16 20" enable-background="new 0 0 16 20" xml:space="preserve">
<path d="M8.873,3.55C8.444,1.804,6.877,0.5,5,0.5v2c0.778,0,1.448,0.452,1.778,1.104C2.946,4.195,0,7.505,0,11.5
	c0,4.411,3.589,8,8,8s8-3.589,8-8C16,7.384,12.875,3.987,8.873,3.55z M8,16.5c-0.553,0-1-0.448-1-1s0.447-1,1-1s1,0.448,1,1
	S8.553,16.5,8,16.5z"/>
</svg>
