<?xml version="1.0" encoding="utf-8"?>
<!-- Generator: Adobe Illustrator 16.0.0, SVG Export Plug-In . SVG Version: 6.00 Build 0)  -->
<!DOCTYPE svg PUBLIC "-//W3C//DTD SVG 1.1//EN" "http://www.w3.org/Graphics/SVG/1.1/DTD/svg11.dtd">
<svg version="1.1" id="Pictograms" xmlns="http://www.w3.org/2000/svg" xmlns:xlink="http://www.w3.org/1999/xlink" x="0px" y="0px"
	 width="20px" height="20px" viewBox="0 0 20 20" enable-background="new 0 0 20 20" xml:space="preserve">
<path d="M16,0H4C1.791,0,0,1.791,0,4v12c0,2.209,1.791,4,4,4h12c2.209,0,4-1.791,4-4V4C20,1.791,18.209,0,16,0z M12.829,14.242
	L10,11.414l-2.829,2.828l-1.414-1.414L8.586,10L5.757,7.172l1.414-1.414L10,8.586l2.829-2.828l1.414,1.414L11.414,10l2.829,2.828
	L12.829,14.242z"/>
</svg>
