<?xml version="1.0" encoding="utf-8"?>
<!-- Generator: Adobe Illustrator 16.0.1, SVG Export Plug-In . SVG Version: 6.00 Build 0)  -->
<!DOCTYPE svg PUBLIC "-//W3C//DTD SVG 1.1//EN" "http://www.w3.org/Graphics/SVG/1.1/DTD/svg11.dtd">
<svg version="1.1" id="Слой_1" xmlns="http://www.w3.org/2000/svg" xmlns:xlink="http://www.w3.org/1999/xlink" x="0px" y="0px"
	 width="25px" height="30px" viewBox="0 0 25 30" enable-background="new 0 0 25 30" xml:space="preserve">
<path id="path2161" fill="#010202" d="M10.115,29.818c-1.157-0.247-2.091-0.642-3.075-1.295c-2.123-1.413-3.188-3.268-3.377-5.887
	c-0.098-1.322,0.152-2.484,0.895-4.175c0.046-0.103-0.157-0.134-0.825-0.134H2.849v-0.873v-0.874h1.558h1.557l0.487-0.5
	c0.266-0.275,0.945-0.851,1.509-1.28l1.025-0.786l-3.068-0.026l-3.069-0.026v-0.818v-0.816h4.416h4.415l1.231-0.831
	c2.458-1.657,3.404-2.611,3.906-3.943c0.311-0.83,0.27-2.426-0.08-3.208c-1.023-2.268-4.292-2.959-6.874-1.445
	C8.185,3.883,6.46,6.305,5.793,8.606L5.54,9.493H5.066c-0.375,0-0.471-0.04-0.475-0.191c-0.002-0.104,0.18-2.163,0.404-4.583
	l0.407-4.388l0.441,0.005c0.418,0.005,0.454,0.032,0.683,0.522c0.314,0.668,0.751,0.938,1.362,0.837
	c0.245-0.042,1.041-0.271,1.766-0.506c0.729-0.238,1.713-0.527,2.195-0.643c3.852-0.926,7.641,1.344,8.515,5.093
	c0.229,0.975,0.225,2.824-0.008,3.695c-0.207,0.779-0.599,1.664-1.04,2.357c-0.179,0.279-0.324,0.533-0.324,0.576
	c0,0.037,0.368,0.075,0.818,0.075h0.82v0.818v0.817h-1.7h-1.703l-1.913,1.283l-1.912,1.284l3.619,0.024l3.616,0.026v0.873v0.872
	h-4.993h-4.989l-0.93,0.954c-1.458,1.496-2.048,2.917-1.933,4.648c0.089,1.361,0.396,2.03,1.383,3.02
	c1.009,1.018,1.653,1.306,3.081,1.386c3.483,0.187,6.703-2.43,8.275-6.736l0.298-0.817l0.445-0.033
	c0.302-0.025,0.45,0.011,0.45,0.101c0,0.193-1.092,8.61-1.151,8.906c-0.047,0.223-0.111,0.246-0.509,0.223
	c-0.421-0.031-0.464-0.064-0.547-0.416c-0.134-0.554-0.539-0.876-1.103-0.876c-0.255,0-1.335,0.241-2.398,0.54
	c-1.063,0.296-2.213,0.591-2.553,0.653C12.605,30.043,11.011,30.012,10.115,29.818z"/>
</svg>
