<svg xmlns="http://www.w3.org/2000/svg" xmlns:xlink="http://www.w3.org/1999/xlink" version="1.1" x="0px" y="0px" viewBox="0 0 74.667 125" enable-background="new 0 0 74.667 100" xml:space="preserve"><g><path d="M50.309,78.925c-1.955,1.371-6.286,2.324-11.318,2.324c-5.032,0-9.363-0.953-11.319-2.324   c-0.363,0.625-0.565,1.316-0.565,2.076c0,0.655,0.15,1.261,0.428,1.817c-0.277,0.557-0.428,1.162-0.428,1.819   c0,0.655,0.15,1.262,0.428,1.817c-0.277,0.556-0.428,1.162-0.428,1.818c0,4.142,5.979,6.308,11.884,6.308   c5.905,0,11.886-2.166,11.886-6.308c0-0.656-0.153-1.263-0.429-1.818c0.275-0.556,0.429-1.162,0.429-1.817   c0-0.657-0.153-1.263-0.429-1.819c0.275-0.557,0.429-1.162,0.429-1.817C50.876,80.241,50.673,79.55,50.309,78.925z"/><path d="M38.681,5.337c-16.069,0-29.095,13.026-29.095,29.095c0,7.956,2.122,13.486,8.37,20.414   c3.559,3.946,10.978,15.935,10.481,20.563c0,1.428,3.729,2.608,8.604,2.829V56.581c-1.908-0.188-3.278-0.691-3.278-1.287   c0-0.754,2.202-1.366,4.917-1.366c2.715,0,4.918,0.612,4.918,1.366c0,0.596-1.369,1.099-3.278,1.287v21.657   c4.876-0.221,8.605-1.401,8.605-2.829c-0.609-5.656,9.586-18.867,11.867-22.027c4.737-6.557,6.982-11.709,6.982-18.95   C67.775,18.363,54.75,5.337,38.681,5.337z"/></g></svg>
