<?xml version="1.0" encoding="utf-8"?>
<!-- Generator: Adobe Illustrator 16.0.0, SVG Export Plug-In . SVG Version: 6.00 Build 0)  -->
<!DOCTYPE svg PUBLIC "-//W3C//DTD SVG 1.1//EN" "http://www.w3.org/Graphics/SVG/1.1/DTD/svg11.dtd">
<svg version="1.1" id="Pictograms" xmlns="http://www.w3.org/2000/svg" xmlns:xlink="http://www.w3.org/1999/xlink" x="0px" y="0px"
	 width="20px" height="20px" viewBox="0 0 20 20" enable-background="new 0 0 20 20" xml:space="preserve">
<g>
	<path d="M10,8c-1.657,0-3,1.343-3,3s1.343,3,3,3s3-1.343,3-3S11.657,8,10,8z M10,12.5c-0.828,0-1.5-0.671-1.5-1.5S9.172,9.5,10,9.5
		s1.5,0.671,1.5,1.5S10.828,12.5,10,12.5z"/>
	<path d="M17.5,0h-15C1.119,0,0,1.119,0,2.5v15C0,18.881,1.119,20,2.5,20h15c1.381,0,2.5-1.119,2.5-2.5v-15
		C20,1.119,18.881,0,17.5,0z M17,15c0,0.553-0.448,1-1,1H4c-0.552,0-1-0.447-1-1V8c0-0.553,0.448-1,1-1h3V6c0-0.553,0.448-1,1-1h4
		c0.552,0,1,0.447,1,1v1h3c0.552,0,1,0.447,1,1V15z"/>
</g>
</svg>
