<?xml version="1.0" encoding="utf-8"?>
<!-- Generator: Adobe Illustrator 16.0.0, SVG Export Plug-In . SVG Version: 6.00 Build 0)  -->
<!DOCTYPE svg PUBLIC "-//W3C//DTD SVG 1.1//EN" "http://www.w3.org/Graphics/SVG/1.1/DTD/svg11.dtd">
<svg version="1.1" id="Pictograms" xmlns="http://www.w3.org/2000/svg" xmlns:xlink="http://www.w3.org/1999/xlink" x="0px" y="0px"
	 width="16px" height="4px" viewBox="0 0 16 4" enable-background="new 0 0 16 4" xml:space="preserve">
<g>
	<path fill-rule="evenodd" clip-rule="evenodd" d="M2,0c1.104,0,2,0.896,2,2S3.104,4,2,4S0,3.104,0,2S0.896,0,2,0z"/>
	<path fill-rule="evenodd" clip-rule="evenodd" d="M8,0c1.104,0,2,0.896,2,2S9.104,4,8,4S6,3.104,6,2S6.896,0,8,0z"/>
	<path fill-rule="evenodd" clip-rule="evenodd" d="M14,0c1.104,0,2,0.896,2,2s-0.896,2-2,2s-2-0.896-2-2S12.896,0,14,0z"/>
</g>
</svg>
