<svg xmlns="http://www.w3.org/2000/svg" xmlns:xlink="http://www.w3.org/1999/xlink" version="1.1" x="0px" y="0px" viewBox="0 0 90 112.5" enable-background="new 0 0 90 90" xml:space="preserve"><g><path d="M82.968,67.485c-0.38-1.521-1.925-2.451-3.449-2.073l-26.729,6.649c-0.098,0.024-0.186,0.066-0.278,0.101   c0.792,1.666,1.268,3.509,1.354,5.456c0.099-0.013,0.198-0.013,0.298-0.036l26.729-6.647   C82.418,70.555,83.346,69.011,82.968,67.485z"/><path d="M33.586,65.429c1.67-0.792,3.516-1.271,5.465-1.354c-0.014-0.102-0.018-0.201-0.042-0.301l-13.333-53.6L11.361,0.721   C10.048-0.144,8.284,0.217,7.418,1.53C6.554,2.84,6.915,4.604,8.225,5.471L20.69,13.7l12.8,51.446   C33.515,65.245,33.554,65.336,33.586,65.429z"/><path d="M55.456,19.343c-0.19-0.75-0.952-1.201-1.703-1.01l-21.687,5.54c-0.748,0.19-1.201,0.953-1.01,1.702l3.85,15.067   c0.19,0.749,0.954,1.201,1.702,1.008l21.687-5.54c0.75-0.19,1.201-0.951,1.011-1.7L55.456,19.343z"/><path d="M28.187,78.257c0-6.35,5.146-11.492,11.492-11.492l0,0c6.35,0,11.494,5.143,11.498,11.492l0,0   c-0.004,6.349-5.147,11.492-11.498,11.492l0,0C33.333,89.749,28.187,84.605,28.187,78.257L28.187,78.257z M30.625,78.257   c0.008,5,4.055,9.043,9.056,9.054l0,0c5-0.011,9.046-4.054,9.055-9.054l0,0c-0.009-5.002-4.055-9.046-9.055-9.057l0,0   C34.678,69.211,30.633,73.255,30.625,78.257L30.625,78.257z"/><path d="M82.61,60.413l-6.333-24.797c-0.315-1.234-1.569-1.979-2.803-1.663l-35.692,9.116c-1.231,0.316-1.977,1.571-1.663,2.804   l4.625,18.101c4.677,0.345,8.721,2.924,11.08,6.681l29.125-7.438C82.182,62.901,82.925,61.646,82.61,60.413z"/><path d="M33.611,78.255c0-3.351,2.719-6.068,6.068-6.068l0,0c3.352,0,6.067,2.718,6.07,6.068l0,0   c-0.003,3.352-2.717,6.068-6.07,6.068l0,0C36.33,84.323,33.611,81.606,33.611,78.255L33.611,78.255z M35.238,78.255   c0.005,2.456,1.991,4.439,4.443,4.441l0,0c2.454-0.002,4.439-1.985,4.443-4.441l0,0c-0.003-2.452-1.989-4.438-4.443-4.442l0,0   C37.229,73.817,35.242,75.803,35.238,78.255L35.238,78.255z"/></g></svg>
