<?xml version="1.0" encoding="utf-8"?>
<!-- Generator: Adobe Illustrator 16.0.1, SVG Export Plug-In . SVG Version: 6.00 Build 0)  -->
<!DOCTYPE svg PUBLIC "-//W3C//DTD SVG 1.1//EN" "http://www.w3.org/Graphics/SVG/1.1/DTD/svg11.dtd">
<svg version="1.1" id="Слой_1" xmlns="http://www.w3.org/2000/svg" xmlns:xlink="http://www.w3.org/1999/xlink" x="0px" y="0px"
	 width="25px" height="30px" viewBox="0 0 25 30" enable-background="new 0 0 25 30" xml:space="preserve">
<path fill="#010202" d="M2.503,15.834h2.988V0.817c1.065-0.252,2.208-0.42,3.426-0.505c1.219-0.084,2.433-0.126,3.641-0.126
	c1.29,0,2.556,0.126,3.805,0.377c1.251,0.25,2.355,0.716,3.321,1.39c0.968,0.67,1.745,1.583,2.336,2.729
	c0.591,1.15,0.887,2.622,0.887,4.42c0,1.768-0.299,3.239-0.902,4.416c-0.604,1.177-1.405,2.132-2.396,2.862
	c-0.994,0.728-2.131,1.245-3.411,1.556c-1.276,0.308-2.572,0.476-3.892,0.505l-3.325,0.041v2.985h6.984v2.604H8.982v5.892h-3.49
	v-5.892H2.503v-2.604h2.988v-3.031H2.503V15.834z M12.64,3.131c-0.729,0-1.423,0.02-2.082,0.063C9.898,3.237,9.374,3.3,8.981,3.383
	V15.58h3.196c0.84,0,1.683-0.083,2.524-0.252c0.842-0.169,1.596-0.491,2.271-0.967c0.674-0.476,1.218-1.13,1.641-1.957
	c0.421-0.828,0.615-1.914,0.586-3.26c0.027-1.149-0.134-2.109-0.481-2.879c-0.349-0.772-0.825-1.385-1.426-1.852
	c-0.605-0.461-1.311-0.792-2.106-0.99C14.39,3.229,13.538,3.131,12.64,3.131z"/>
</svg>
