<?xml version="1.0" encoding="utf-8"?>
<!-- Generator: Adobe Illustrator 16.0.0, SVG Export Plug-In . SVG Version: 6.00 Build 0)  -->
<!DOCTYPE svg PUBLIC "-//W3C//DTD SVG 1.1//EN" "http://www.w3.org/Graphics/SVG/1.1/DTD/svg11.dtd">
<svg version="1.1" id="Pictograms" xmlns="http://www.w3.org/2000/svg" xmlns:xlink="http://www.w3.org/1999/xlink" x="0px" y="0px"
	 width="14px" height="18px" viewBox="0 0 14 18" enable-background="new 0 0 14 18" xml:space="preserve">
<path d="M10.047,3.108C9.64,1.332,8.054,0,6.155,0v2c0.816,0,1.518,0.493,1.828,1.195C6.352,3.7,5.155,5.205,5.155,7
	c0,3.394-2.028,6.144-3.239,7.787c-0.826,1.119-1.324,1.795-0.939,2.556C1.077,17.541,1.391,18,2.155,18c2.128,0,11-4.391,11-11
	C13.155,5.103,11.823,3.517,10.047,3.108z M3.958,15.384C5.264,13.571,7.155,10.626,7.155,7c0-1.103,0.897-2,2-2s2,0.897,2,2
	C11.155,11.056,6.638,14.13,3.958,15.384z"/>
</svg>
