<?xml version="1.0" encoding="utf-8"?>
<!-- Generator: Adobe Illustrator 16.0.0, SVG Export Plug-In . SVG Version: 6.00 Build 0)  -->
<!DOCTYPE svg PUBLIC "-//W3C//DTD SVG 1.1//EN" "http://www.w3.org/Graphics/SVG/1.1/DTD/svg11.dtd">
<svg version="1.1" id="Pictograms" xmlns="http://www.w3.org/2000/svg" xmlns:xlink="http://www.w3.org/1999/xlink" x="0px" y="0px"
	 width="16px" height="16px" viewBox="0 0 16 16" enable-background="new 0 0 16 16" xml:space="preserve">
<g>
	<path d="M8,0C3.589,0,0,3.59,0,8c0,4.412,3.589,8,8,8s8-3.588,8-8C16,3.59,12.411,0,8,0z M8,14c-3.309,0-6-2.691-6-6s2.691-6,6-6
		s6,2.691,6,6S11.309,14,8,14z"/>
	<polygon points="9,3 7,3 7,8.414 9.293,10.707 10.707,9.293 9,7.586 	"/>
</g>
</svg>
