<?xml version="1.0" encoding="utf-8"?>
<!-- Generator: Adobe Illustrator 16.0.0, SVG Export Plug-In . SVG Version: 6.00 Build 0)  -->
<!DOCTYPE svg PUBLIC "-//W3C//DTD SVG 1.1//EN" "http://www.w3.org/Graphics/SVG/1.1/DTD/svg11.dtd">
<svg version="1.1" id="Pictograms" xmlns="http://www.w3.org/2000/svg" xmlns:xlink="http://www.w3.org/1999/xlink" x="0px" y="0px"
	 width="16px" height="19px" viewBox="0 0 16 19" enable-background="new 0 0 16 19" xml:space="preserve">
<g>
	<path d="M8.873,3.05C8.444,1.304,6.877,0,5,0v2c0.778,0,1.448,0.452,1.778,1.104C2.946,3.695,0,7.005,0,11c0,4.411,3.589,8,8,8
		s8-3.589,8-8C16,6.884,12.875,3.487,8.873,3.05z M8,17c-3.309,0-6-2.691-6-6s2.691-6,6-6s6,2.691,6,6S11.309,17,8,17z"/>
	<circle cx="8" cy="15" r="1"/>
</g>
</svg>
