<?xml version="1.0" encoding="utf-8"?>
<!-- Generator: Adobe Illustrator 16.0.1, SVG Export Plug-In . SVG Version: 6.00 Build 0)  -->
<!DOCTYPE svg PUBLIC "-//W3C//DTD SVG 1.1//EN" "http://www.w3.org/Graphics/SVG/1.1/DTD/svg11.dtd">
<svg version="1.1" id="Слой_1" xmlns="http://www.w3.org/2000/svg" xmlns:xlink="http://www.w3.org/1999/xlink" x="0px" y="0px"
	 width="25px" height="30px" viewBox="0 0 25 30" enable-background="new 0 0 25 30" xml:space="preserve">
<path fill="#010202" d="M24,1.637l-0.786,3.638c-1.558-1.319-3.327-1.977-5.3-1.977c-2.672,0-4.777,0.789-6.303,2.372
	C10.079,7.255,9.162,9.03,8.854,10.99H21.95l-0.505,2.67H8.547l-0.039,0.777l0.039,1.819h12.344l-0.498,2.671H8.946
	c0.487,2.67,1.542,4.64,3.162,5.898c1.617,1.261,3.447,1.892,5.479,1.892c2.406,0,4.283-0.652,5.626-1.957v4.096
	C21.624,29.621,19.857,30,17.913,30c-7.066,0-11.327-3.691-12.787-11.074H2.171l0.559-2.67h1.994
	c-0.025-0.319-0.036-0.911-0.036-1.783v-0.812H2.171L2.73,10.99h2.245c0.664-3.639,2.208-6.377,4.627-8.212
	c2.419-1.836,5.216-2.757,8.39-2.757C20.371,0.016,22.378,0.554,24,1.637z"/>
</svg>
