<?xml version="1.0" encoding="utf-8"?>
<!-- Generator: Adobe Illustrator 16.0.0, SVG Export Plug-In . SVG Version: 6.00 Build 0)  -->
<!DOCTYPE svg PUBLIC "-//W3C//DTD SVG 1.1//EN" "http://www.w3.org/Graphics/SVG/1.1/DTD/svg11.dtd">
<svg version="1.1" id="Pictograms" xmlns="http://www.w3.org/2000/svg" xmlns:xlink="http://www.w3.org/1999/xlink" x="0px" y="0px"
	 width="18px" height="17px" viewBox="0 0 18 17" enable-background="new 0 0 18 17" xml:space="preserve">
<g>
	<path d="M9.064,16.139L1.462,8.536c-1.95-1.95-1.95-5.122,0-7.071C2.406,0.521,3.662,0,4.998,0s2.591,0.521,3.536,1.465
		c0.168,0.168,0.323,0.347,0.464,0.533c0.141-0.187,0.296-0.365,0.464-0.533C10.406,0.521,11.662,0,12.998,0
		s2.591,0.521,3.536,1.465S17.998,3.664,17.998,5s-0.52,2.592-1.464,3.536L9.064,16.139z M4.998,2C4.196,2,3.443,2.312,2.876,2.879
		c-1.17,1.17-1.17,3.073,0,4.243l6.176,6.176l6.061-6.17C15.686,6.555,15.998,5.802,15.998,5c0-0.801-0.312-1.555-0.878-2.121
		c-1.134-1.133-3.109-1.133-4.243,0c-0.566,0.566-0.878,1.319-0.878,2.12l-2,0.005c0-0.806-0.312-1.559-0.878-2.125
		C6.552,2.312,5.799,2,4.998,2z"/>
</g>
</svg>
