<?xml version="1.0" encoding="utf-8"?>
<!-- Generator: Adobe Illustrator 16.0.0, SVG Export Plug-In . SVG Version: 6.00 Build 0)  -->
<!DOCTYPE svg PUBLIC "-//W3C//DTD SVG 1.1//EN" "http://www.w3.org/Graphics/SVG/1.1/DTD/svg11.dtd">
<svg version="1.1" id="Pictograms" xmlns="http://www.w3.org/2000/svg" xmlns:xlink="http://www.w3.org/1999/xlink" x="0px" y="0px"
	 width="12px" height="20px" viewBox="0 0 12 20" enable-background="new 0 0 12 20" xml:space="preserve">
<g>
	<path d="M6.25,0C3.08,0,0.5,2.58,0.5,5.75c0,1.287,0.417,2.504,1.205,3.518l0.128,0.164C2.652,10.484,3.5,11.572,3.5,12.75
		c0,0.414,0.336,0.75,0.75,0.75h4C8.664,13.5,9,13.164,9,12.75c0-1.18,0.849-2.268,1.669-3.32l0.126-0.162
		C11.583,8.254,12,7.037,12,5.75C12,2.58,9.421,0,6.25,0z M9.611,8.347l-0.125,0.16C8.697,9.52,7.818,10.646,7.569,12H4.931
		c-0.249-1.352-1.126-2.479-1.915-3.49L2.889,8.347C2.308,7.599,2,6.701,2,5.75C2,3.406,3.907,1.5,6.25,1.5
		c2.344,0,4.25,1.906,4.25,4.25C10.5,6.701,10.192,7.599,9.611,8.347z"/>
	<path d="M8.25,14h-4c-0.414,0-0.75,0.336-0.75,0.75s0.336,0.75,0.75,0.75h4C8.664,15.5,9,15.164,9,14.75S8.664,14,8.25,14z"/>
	<path d="M8.25,16h-4c-0.414,0-0.75,0.336-0.75,0.75s0.335,0.75,0.75,0.75h4C8.664,17.5,9,17.164,9,16.75S8.664,16,8.25,16z"/>
	<path d="M7.25,18h-2c-0.414,0-0.75,0.336-0.75,0.75s0.336,0.75,0.75,0.75h2C7.664,19.5,8,19.164,8,18.75S7.664,18,7.25,18z"/>
	<path d="M6.25,2C4.182,2,2.5,3.682,2.5,5.75c0,0.414,0.336,0.75,0.75,0.75S4,6.164,4,5.75C4,4.509,5.009,3.5,6.25,3.5
		C6.664,3.5,7,3.164,7,2.75S6.664,2,6.25,2z"/>
</g>
</svg>
