<?xml version="1.0" encoding="utf-8"?>
<!-- Generator: Adobe Illustrator 16.0.0, SVG Export Plug-In . SVG Version: 6.00 Build 0)  -->
<!DOCTYPE svg PUBLIC "-//W3C//DTD SVG 1.1//EN" "http://www.w3.org/Graphics/SVG/1.1/DTD/svg11.dtd">
<svg version="1.1" id="Pictograms" xmlns="http://www.w3.org/2000/svg" xmlns:xlink="http://www.w3.org/1999/xlink" x="0px" y="0px"
	 width="21px" height="25px" viewBox="0 0 21 25" enable-background="new 0 0 21 25" xml:space="preserve">
<g>
	<path d="M3.5,0h16C20.328,0,21,0.672,21,1.5C21,2.329,20.328,3,19.5,3H4.771l-1.5,9H9.5c0.715,0,1.331,0.505,1.471,1.206
		l1.518,7.589c0.048,0.238,0.178,0.584,0.52,0.864C13.352,21.941,13.715,22,13.959,22H14v-6.429c0-0.858,0.167-1.695,0.495-2.488
		c0.329-0.792,0.803-1.502,1.409-2.108l2.535-2.535c0.586-0.586,1.535-0.586,2.121,0s0.586,1.535,0,2.121l-2.535,2.536
		c-0.326,0.326-0.582,0.709-0.759,1.136S17,15.109,17,15.571V23.5c0,0.828-0.672,1.5-1.5,1.5h-1.541c-1.037,0-2.05-0.362-2.853-1.02
		c-0.801-0.656-1.355-1.579-1.56-2.597L8.271,15H1.5c-0.441,0-0.859-0.193-1.145-0.53c-0.285-0.336-0.407-0.781-0.335-1.216l2-12
		C2.141,0.53,2.767,0,3.5,0z"/>
</g>
</svg>
