<?xml version="1.0" encoding="utf-8"?>
<!-- Generator: Adobe Illustrator 16.0.0, SVG Export Plug-In . SVG Version: 6.00 Build 0)  -->
<!DOCTYPE svg PUBLIC "-//W3C//DTD SVG 1.1//EN" "http://www.w3.org/Graphics/SVG/1.1/DTD/svg11.dtd">
<svg version="1.1" id="Pictograms" xmlns="http://www.w3.org/2000/svg" xmlns:xlink="http://www.w3.org/1999/xlink" x="0px" y="0px"
	 width="20.979px" height="25px" viewBox="0 0 20.979 25" enable-background="new 0 0 20.979 25" xml:space="preserve">
<g>
	<path d="M17.5,25h-16C0.672,25,0,24.328,0,23.5S0.672,22,1.5,22h14.729l1.5-9H11.5c-0.715,0-1.331-0.505-1.471-1.206L8.512,4.206
		c-0.048-0.239-0.178-0.585-0.52-0.865C7.648,3.06,7.285,3,7.041,3H7v6.429c0,0.858-0.167,1.696-0.495,2.488
		c-0.329,0.793-0.803,1.502-1.409,2.108l-2.535,2.535c-0.586,0.586-1.535,0.586-2.121,0c-0.586-0.585-0.586-1.535,0-2.121
		l2.535-2.535c0.326-0.327,0.582-0.709,0.759-1.137C3.91,10.342,4,9.891,4,9.429V1.5C4,0.672,4.672,0,5.5,0h1.541
		c1.037,0,2.05,0.362,2.853,1.021c0.801,0.656,1.355,1.578,1.56,2.596L12.729,10H19.5c0.441,0,0.859,0.194,1.145,0.53
		c0.285,0.337,0.407,0.781,0.335,1.217l-2,12C18.859,24.47,18.233,25,17.5,25z"/>
</g>
</svg>
