<?xml version="1.0" encoding="utf-8"?>
<!-- Generator: Adobe Illustrator 16.0.0, SVG Export Plug-In . SVG Version: 6.00 Build 0)  -->
<!DOCTYPE svg PUBLIC "-//W3C//DTD SVG 1.1//EN" "http://www.w3.org/Graphics/SVG/1.1/DTD/svg11.dtd">
<svg version="1.1" id="Pictograms" xmlns="http://www.w3.org/2000/svg" xmlns:xlink="http://www.w3.org/1999/xlink" x="0px" y="0px"
	 width="11px" height="11px" viewBox="0 0 11 11" enable-background="new 0 0 11 11" xml:space="preserve">
<path d="M7.448,6.029C8.353,4.496,8.151,2.49,6.833,1.172c-1.562-1.562-4.095-1.562-5.657,0c-1.562,1.562-1.562,4.096,0,5.656
	C2.495,8.146,4.5,8.348,6.034,7.443l2.921,2.922L10.37,8.95L7.448,6.029z M2.591,5.414c-0.781-0.78-0.781-2.047,0-2.828
	c0.78-0.781,2.047-0.781,2.828,0s0.781,2.048,0,2.828C4.638,6.195,3.372,6.195,2.591,5.414z"/>
</svg>
