<?xml version="1.0" encoding="utf-8"?>
<!-- Generator: Adobe Illustrator 16.0.0, SVG Export Plug-In . SVG Version: 6.00 Build 0)  -->
<!DOCTYPE svg PUBLIC "-//W3C//DTD SVG 1.1//EN" "http://www.w3.org/Graphics/SVG/1.1/DTD/svg11.dtd">
<svg version="1.1" id="Pictograms" xmlns="http://www.w3.org/2000/svg" xmlns:xlink="http://www.w3.org/1999/xlink" x="0px" y="0px"
	 width="21px" height="20.995px" viewBox="0 0 21 20.995" enable-background="new 0 0 21 20.995" xml:space="preserve">
<path d="M14.886,12.058c1.81-3.067,1.406-7.079-1.229-9.714c-3.125-3.125-8.189-3.125-11.314,0c-3.124,3.124-3.124,8.189,0,11.313
	c2.635,2.635,6.647,3.038,9.714,1.229l5.842,5.843l2.829-2.829L14.886,12.058z M5.172,10.829c-1.562-1.562-1.562-4.095,0-5.657
	c1.562-1.562,4.095-1.562,5.657,0c1.562,1.562,1.562,4.095,0,5.657C9.267,12.391,6.734,12.391,5.172,10.829z"/>
</svg>
