<?xml version="1.0" encoding="utf-8"?>
<!-- Generator: Adobe Illustrator 16.0.0, SVG Export Plug-In . SVG Version: 6.00 Build 0)  -->
<!DOCTYPE svg PUBLIC "-//W3C//DTD SVG 1.1//EN" "http://www.w3.org/Graphics/SVG/1.1/DTD/svg11.dtd">
<svg version="1.1" id="Pictograms" xmlns="http://www.w3.org/2000/svg" xmlns:xlink="http://www.w3.org/1999/xlink" x="0px" y="0px"
	 width="16px" height="9px" viewBox="0 0 16 9" enable-background="new 0 0 16 9" xml:space="preserve">
<g>
	<g>
		<path d="M7.999,3c-1.654,0-3,1.346-3,2.999c0,1.654,1.346,3.001,3,3.001s3-1.347,3-3.001C10.999,4.346,9.653,3,7.999,3z
			 M7.999,6.999c-0.552,0-1-0.448-1-1c0-0.551,0.448-0.999,1-0.999c0.553,0,1,0.448,1,0.999C8.999,6.551,8.552,6.999,7.999,6.999z
			 M15.894,4.553C15.802,4.366,13.554,0,7.999,0C2.445,0,0.197,4.366,0.104,4.553c-0.247,0.494-0.047,1.095,0.447,1.341
			c0.494,0.248,1.095,0.048,1.342-0.446C1.911,5.412,3.667,2,7.999,2c4.291,0,6.035,3.311,6.105,3.447
			C14.28,5.798,14.634,6,15.001,5.999c0.15,0,0.303-0.033,0.445-0.105C15.94,5.647,16.142,5.047,15.894,4.553z"/>
	</g>
</g>
</svg>
